<svg xmlns="http://www.w3.org/2000/svg" version="1.1" xmlns:xlink="http://www.w3.org/1999/xlink" width="30px" height="30px" x="0" y="0" viewBox="0 0 512 512" style="enable-background:new 0 0 512 512" xml:space="preserve"><g><path d="M401.149 162.637c-5.785-2.241-12.249-2.761-18.579-1.167l-25.26 6.35c-16.09 4.03-32.49-5.43-37.03-21.4l-3.89-13.69a79.519 79.519 0 0 1-9.33 8.43c-6.79 5.23-10.84 13.02-11 21.33-.01.17-.01.34-.01.51v53.76c31.23 14.95 52.79 46.85 52.79 83.78s-21.56 68.84-52.79 83.79c-9.926 4.765-20.839 7.8-32.344 8.748-5.161.385-10.28.385-15.441.001a92.103 92.103 0 0 1-32.305-8.739c-31.23-14.95-52.79-46.86-52.79-83.8s21.56-68.85 52.79-83.79V163c0-.17 0-.35-.01-.52-.16-8.3-4.21-16.09-11-21.32-3.34-2.57-6.47-5.4-9.34-8.44l-3.89 13.7c-4.54 15.97-20.94 25.43-37.03 21.4l-25.26-6.35c-13.3-3.35-27.23 2.54-34.09 14.42l-27.61 47.84c-6.88 11.88-5 26.88 4.54 36.73l18.12 18.68c11.55 11.93 11.55 30.87 0 42.77l-18.12 18.71c-9.54 9.85-11.42 24.85-4.54 36.73l27.61 47.84c6.86 11.88 20.79 17.77 34.09 14.42l25.26-6.35c16.09-4.03 32.49 5.44 37.03 21.4l7.11 25.03c3.75 13.2 15.84 22.31 29.54 22.31h55.26c13.71 0 25.76-9.11 29.54-22.31l7.11-25.03c4.54-15.96 20.94-25.43 37.03-21.4l25.26 6.35c13.3 3.35 27.23-2.54 34.09-14.42l27.61-47.84c6.88-11.88 5-26.88-4.54-36.73l-18.12-18.71c-11.55-11.9-11.55-30.84 0-42.77l18.12-18.68c6.419-6.628 9.353-15.587 8.501-24.359" style="stroke-width:20;stroke-linecap:round;stroke-linejoin:round;stroke-miterlimit:10;" fill="#1984e1" stroke="#000000" stroke-width="20" stroke-linecap="round" stroke-linejoin="round" stroke-miterlimit="10" data-original="#000000"></path><path d="M337.385 80.618c0 24.469-11.832 46.293-30.328 60.544-6.788 5.227-10.836 13.018-10.997 21.326-.009.172-.009.344-.009.516V384.33c-12.223 5.842-25.777 9.067-40.064 9.067-14.268 0-28.14-3.341-40.026-9.057V163.003c0-.172 0-.353-.009-.526-.161-8.298-4.209-16.089-10.997-21.317-18.496-14.25-30.337-36.074-30.337-60.544 0-31.3 19.35-58.288 47.251-70.618v55.427l34.575 19.623 33.693-19.623V10c27.898 12.33 47.248 39.318 47.248 70.618zM256 177.511v215.803" style="stroke-width:20;stroke-linecap:round;stroke-linejoin:round;stroke-miterlimit:10;" fill="#1984e1" stroke="#000000" stroke-width="20" stroke-linecap="round" stroke-linejoin="round" stroke-miterlimit="10" data-original="#000000"></path><path d="M215.96 216.75v167.58c-31.23-14.95-52.8-46.86-52.8-83.79 0-36.93 21.56-68.84 52.8-83.79zM348.84 300.54c0 36.92-21.56 68.83-52.79 83.78V216.75c31.23 14.96 52.79 46.86 52.79 83.79zM428.734 196.811h0" style="stroke-width:20;stroke-linecap:round;stroke-linejoin:round;stroke-miterlimit:10;" fill="none" stroke="#000000" stroke-width="20" stroke-linecap="round" stroke-linejoin="round" stroke-miterlimit="10" data-original="#000000"></path></g></svg>