<svg xmlns="http://www.w3.org/2000/svg" version="1.1" xmlns:xlink="http://www.w3.org/1999/xlink" width="32px" height="32px" x="0" y="0" viewBox="0 0 512 512" style="enable-background:new 0 0 512 512" xml:space="preserve"><g><path d="M419.84 409.6H92.16c-16.937 0-30.72 13.783-30.72 30.72s13.783 30.72 30.72 30.72h327.68c16.937 0 30.72-13.783 30.72-30.72s-13.783-30.72-30.72-30.72zM471.04 102.4c-22.589 0-40.96 18.371-40.96 40.96 0 15.176 8.397 28.303 20.705 35.389-23.695 56.115-60.662 90.542-95.212 87.429-38.42-3.133-69.755-48.558-87.04-124.559 22.159-5.612 38.666-25.58 38.666-49.459 0-28.242-22.958-51.2-51.2-51.2-28.242 0-51.2 22.958-51.2 51.2 0 23.88 16.507 43.848 38.666 49.459-17.285 76.001-48.62 121.426-87.04 124.559-34.406 3.113-71.537-31.314-95.211-87.429 12.308-7.086 20.705-20.214 20.705-35.389 0-22.589-18.371-40.96-40.96-40.96C18.371 102.4 0 120.771 0 143.36c0 21.013 15.974 38.175 36.372 40.509L75.817 389.12h360.366l39.444-205.251C496.026 181.535 512 164.373 512 143.36c0-22.589-18.371-40.96-40.96-40.96z" fill="#5bd0ff" opacity="1" data-original="#000000"></path></g></svg>